{"accessors" : [{"bufferView" : 0, "byteOffset" : 0, "componentType" : 5123, "count" : 10356, "type" : "SCALAR", "max" : [8915], "min" : [0]}, {"bufferView" : 1, "byteOffset" : 0, "componentType" : 5126, "count" : 8916, "type" : "VEC3", "max" : [0.46284329891204834, 0.23345449566841125, 0.07357574254274368], "min" : [-0.4248833954334259, -0.1542053073644638, -0.11159010231494904], "name" : "POSITION"}, {"bufferView" : 1, "byteOffset" : 12, "componentType" : 5126, "count" : 8916, "type" : "VEC3", "max" : [0.9981710314750671, 1, 0.9997269511222839], "min" : [-0.9981710314750671, -0.999758780002594, -0.9997269511222839], "name" : "NORMAL"}], "asset" : {"generator" : "Aspose.3D 22.1", "version" : "2.0"}, "buffers" : [{"uri" : "data:application/octet-stream;base64,", "byteLength" : 269264}], "bufferViews" : [{"buffer" : 0, "byteOffset" : 0, "byteLength" : 20712, "target" : 34963}, {"buffer" : 0, "byteOffset" : 20716, "byteLength" : 248544, "byteStride" : 24, "target" : 34962}], "meshes" : [{"primitives" : [{"attributes" : {"POSITION" : 1, "NORMAL" : 2}, "indices" : 0, "mode" : 4}], "name" : ""}], "nodes" : [{"mesh" : 0, "name" : ""}], "scene" : 0, "scenes" : [{"nodes" : [0]}]}