{"accessors" : [{"bufferView" : 0, "byteOffset" : 0, "componentType" : 5123, "count" : 1536, "type" : "SCALAR", "max" : [1262], "min" : [0]}, {"bufferView" : 1, "byteOffset" : 0, "componentType" : 5126, "count" : 1263, "type" : "VEC3", "max" : [-527450.1875, 310080.4375, 480791.59375], "min" : [-677090.6875, 160298.640625, 326747.40625], "name" : "POSITION"}, {"bufferView" : 0, "byteOffset" : 3072, "componentType" : 5123, "count" : 1536, "type" : "SCALAR", "max" : [1262], "min" : [0]}, {"bufferView" : 2, "byteOffset" : 0, "componentType" : 5126, "count" : 1263, "type" : "VEC3", "max" : [-592959.5625, 310080.4375, 562511.125], "min" : [-742600.0625, 160298.640625, 408466.96875], "name" : "POSITION"}, {"bufferView" : 0, "byteOffset" : 6144, "componentType" : 5123, "count" : 1536, "type" : "SCALAR", "max" : [1262], "min" : [0]}, {"bufferView" : 3, "byteOffset" : 0, "componentType" : 5126, "count" : 1263, "type" : "VEC3", "max" : [-539730.6875, 310080.4375, 663271.125], "min" : [-689371.1875, 160298.640625, 509226.90625], "name" : "POSITION"}, {"bufferView" : 0, "byteOffset" : 9216, "componentType" : 5123, "count" : 1536, "type" : "SCALAR", "max" : [1262], "min" : [0]}, {"bufferView" : 4, "byteOffset" : 0, "componentType" : 5126, "count" : 1263, "type" : "VEC3", "max" : [-610796.0625, 310080.4375, 443757.0625], "min" : [-760436.5625, 160298.640625, 289712.875], "name" : "POSITION"}, {"bufferView" : 0, "byteOffset" : 12288, "componentType" : 5123, "count" : 1536, "type" : "SCALAR", "max" : [1262], "min" : [0]}, {"bufferView" : 5, "byteOffset" : 0, "componentType" : 5126, "count" : 1263, "type" : "VEC3", "max" : [-476251.78125, 310080.4375, 698443.25], "min" : [-625892.3125, 160298.640625, 544399.125], "name" : "POSITION"}, {"bufferView" : 0, "byteOffset" : 15360, "componentType" : 5123, "count" : 1536, "type" : "SCALAR", "max" : [1262], "min" : [0]}, {"bufferView" : 6, "byteOffset" : 0, "componentType" : 5126, "count" : 1263, "type" : "VEC3", "max" : [-498758.03125, 366475.9375, 620712.625], "min" : [-648398.5625, 216694.171875, 466668.46875], "name" : "POSITION"}, {"bufferView" : 0, "byteOffset" : 18432, "componentType" : 5123, "count" : 1536, "type" : "SCALAR", "max" : [1262], "min" : [0]}, {"bufferView" : 7, "byteOffset" : 0, "componentType" : 5126, "count" : 1263, "type" : "VEC3", "max" : [-577431.5, 366475.9375, 506914.65625], "min" : [-727072, 216694.171875, 352870.46875], "name" : "POSITION"}, {"bufferView" : 0, "byteOffset" : 21504, "componentType" : 5123, "count" : 1536, "type" : "SCALAR", "max" : [1262], "min" : [0]}, {"bufferView" : 8, "byteOffset" : 0, "componentType" : 5126, "count" : 1263, "type" : "VEC3", "max" : [-676228.375, 310080.4375, 542437.875], "min" : [-825868.875, 160298.640625, 388393.71875], "name" : "POSITION"}, {"bufferView" : 0, "byteOffset" : 24576, "componentType" : 5123, "count" : 1536, "type" : "SCALAR", "max" : [1262], "min" : [0]}, {"bufferView" : 9, "byteOffset" : 0, "componentType" : 5126, "count" : 1263, "type" : "VEC3", "max" : [-640845.875, 310080.4375, 648651.375], "min" : [-790486.375, 160298.640625, 494607.21875], "name" : "POSITION"}, {"bufferView" : 0, "byteOffset" : 27648, "componentType" : 5123, "count" : 1536, "type" : "SCALAR", "max" : [1262], "min" : [0]}, {"bufferView" : 10, "byteOffset" : 0, "componentType" : 5126, "count" : 1263, "type" : "VEC3", "max" : [-576377.125, 310080.4375, 709971], "min" : [-726017.625, 160298.640625, 555926.8125], "name" : "POSITION"}, {"bufferView" : 0, "byteOffset" : 30720, "componentType" : 5123, "count" : 1536, "type" : "SCALAR", "max" : [1262], "min" : [0]}, {"bufferView" : 11, "byteOffset" : 0, "componentType" : 5126, "count" : 1263, "type" : "VEC3", "max" : [-569139.5625, 366475.9375, 705472.125], "min" : [-718780.0625, 216694.171875, 551428], "name" : "POSITION"}, {"bufferView" : 0, "byteOffset" : 33792, "componentType" : 5123, "count" : 1536, "type" : "SCALAR", "max" : [1262], "min" : [0]}, {"bufferView" : 12, "byteOffset" : 0, "componentType" : 5126, "count" : 1263, "type" : "VEC3", "max" : [-613556.25, 366475.9375, 621393.375], "min" : [-763196.75, 216694.171875, 467349.21875], "name" : "POSITION"}, {"bufferView" : 0, "byteOffset" : 36864, "componentType" : 5123, "count" : 1536, "type" : "SCALAR", "max" : [1262], "min" : [0]}, {"bufferView" : 13, "byteOffset" : 0, "componentType" : 5126, "count" : 1263, "type" : "VEC3", "max" : [-577431.5, 267626.1875, 506914.65625], "min" : [-727072, 117844.421875, 352870.46875], "name" : "POSITION"}, {"bufferView" : 0, "byteOffset" : 39936, "componentType" : 5123, "count" : 1536, "type" : "SCALAR", "max" : [1262], "min" : [0]}, {"bufferView" : 14, "byteOffset" : 0, "componentType" : 5126, "count" : 1263, "type" : "VEC3", "max" : [-521468.40625, 267626.1875, 572745.75], "min" : [-671108.9375, 117844.421875, 418701.59375], "name" : "POSITION"}, {"bufferView" : 0, "byteOffset" : 43008, "componentType" : 5123, "count" : 1536, "type" : "SCALAR", "max" : [1262], "min" : [0]}, {"bufferView" : 15, "byteOffset" : 0, "componentType" : 5126, "count" : 1263, "type" : "VEC3", "max" : [-572925, 267626.1875, 643362.625], "min" : [-722565.5, 117844.421875, 489318.46875], "name" : "POSITION"}, {"bufferView" : 0, "byteOffset" : 46080, "componentType" : 5123, "count" : 1536, "type" : "SCALAR", "max" : [1262], "min" : [0]}, {"bufferView" : 16, "byteOffset" : 0, "componentType" : 5126, "count" : 1263, "type" : "VEC3", "max" : [-572925, 267626.1875, 643362.625], "min" : [-722565.5, 117844.421875, 489318.46875], "name" : "POSITION"}], "asset" : {"generator" : "Aspose.3D 22.3", "version" : "2.0"}, "buffers" : [{"uri" : "data:application/octet-stream;base64,", "byteLength" : 344132}], "bufferViews" : [{"buffer" : 0, "byteOffset" : 0, "byteLength" : 49152, "target" : 34963}, {"buffer" : 0, "byteOffset" : 49156, "byteLength" : 18432, "byteStride" : 12, "target" : 34962}, {"buffer" : 0, "byteOffset" : 67592, "byteLength" : 18432, "byteStride" : 12, "target" : 34962}, {"buffer" : 0, "byteOffset" : 86028, "byteLength" : 18432, "byteStride" : 12, "target" : 34962}, {"buffer" : 0, "byteOffset" : 104464, "byteLength" : 18432, "byteStride" : 12, "target" : 34962}, {"buffer" : 0, "byteOffset" : 122900, "byteLength" : 18432, "byteStride" : 12, "target" : 34962}, {"buffer" : 0, "byteOffset" : 141336, "byteLength" : 18432, "byteStride" : 12, "target" : 34962}, {"buffer" : 0, "byteOffset" : 159772, "byteLength" : 18432, "byteStride" : 12, "target" : 34962}, {"buffer" : 0, "byteOffset" : 178208, "byteLength" : 18432, "byteStride" : 12, "target" : 34962}, {"buffer" : 0, "byteOffset" : 196644, "byteLength" : 18432, "byteStride" : 12, "target" : 34962}, {"buffer" : 0, "byteOffset" : 215080, "byteLength" : 18432, "byteStride" : 12, "target" : 34962}, {"buffer" : 0, "byteOffset" : 233516, "byteLength" : 18432, "byteStride" : 12, "target" : 34962}, {"buffer" : 0, "byteOffset" : 251952, "byteLength" : 18432, "byteStride" : 12, "target" : 34962}, {"buffer" : 0, "byteOffset" : 270388, "byteLength" : 18432, "byteStride" : 12, "target" : 34962}, {"buffer" : 0, "byteOffset" : 288824, "byteLength" : 18432, "byteStride" : 12, "target" : 34962}, {"buffer" : 0, "byteOffset" : 307260, "byteLength" : 18432, "byteStride" : 12, "target" : 34962}, {"buffer" : 0, "byteOffset" : 325696, "byteLength" : 18432, "byteStride" : 12, "target" : 34962}], "meshes" : [{"primitives" : [{"attributes" : {"POSITION" : 1}, "indices" : 0, "mode" : 4}], "name" : ""}, {"primitives" : [{"attributes" : {"POSITION" : 3}, "indices" : 2, "mode" : 4}], "name" : ""}, {"primitives" : [{"attributes" : {"POSITION" : 5}, "indices" : 4, "mode" : 4}], "name" : ""}, {"primitives" : [{"attributes" : {"POSITION" : 7}, "indices" : 6, "mode" : 4}], "name" : ""}, {"primitives" : [{"attributes" : {"POSITION" : 9}, "indices" : 8, "mode" : 4}], "name" : ""}, {"primitives" : [{"attributes" : {"POSITION" : 11}, "indices" : 10, "mode" : 4}], "name" : ""}, {"primitives" : [{"attributes" : {"POSITION" : 13}, "indices" : 12, "mode" : 4}], "name" : ""}, {"primitives" : [{"attributes" : {"POSITION" : 15}, "indices" : 14, "mode" : 4}], "name" : ""}, {"primitives" : [{"attributes" : {"POSITION" : 17}, "indices" : 16, "mode" : 4}], "name" : ""}, {"primitives" : [{"attributes" : {"POSITION" : 19}, "indices" : 18, "mode" : 4}], "name" : ""}, {"primitives" : [{"attributes" : {"POSITION" : 21}, "indices" : 20, "mode" : 4}], "name" : ""}, {"primitives" : [{"attributes" : {"POSITION" : 23}, "indices" : 22, "mode" : 4}], "name" : ""}, {"primitives" : [{"attributes" : {"POSITION" : 25}, "indices" : 24, "mode" : 4}], "name" : ""}, {"primitives" : [{"attributes" : {"POSITION" : 27}, "indices" : 26, "mode" : 4}], "name" : ""}, {"primitives" : [{"attributes" : {"POSITION" : 29}, "indices" : 28, "mode" : 4}], "name" : ""}, {"primitives" : [{"attributes" : {"POSITION" : 31}, "indices" : 30, "mode" : 4}], "name" : ""}], "nodes" : [{"mesh" : 0, "name" : "Sphere001"}, {"mesh" : 1, "name" : "Sphere002"}, {"mesh" : 2, "name" : "Sphere003"}, {"mesh" : 3, "name" : "Sphere004"}, {"mesh" : 4, "name" : "Sphere005"}, {"mesh" : 5, "name" : "Sphere006"}, {"mesh" : 6, "name" : "Sphere007"}, {"mesh" : 7, "name" : "Sphere008"}, {"mesh" : 8, "name" : "Sphere010"}, {"mesh" : 9, "name" : "Sphere011"}, {"mesh" : 10, "name" : "Sphere012"}, {"mesh" : 11, "name" : "Sphere013"}, {"mesh" : 12, "name" : "Sphere014"}, {"mesh" : 13, "name" : "Sphere016"}, {"mesh" : 14, "name" : "Sphere017"}, {"mesh" : 15, "name" : "Sphere018"}], "scene" : 0, "scenes" : [{"nodes" : [0, 1, 2, 3, 4, 5, 6, 7, 8, 9, 10, 11, 12, 13, 14, 15]}]}