{"accessors" : [{"bufferView" : 0, "byteOffset" : 0, "componentType" : 5123, "count" : 1806, "type" : "SCALAR", "max" : [1341], "min" : [0]}, {"bufferView" : 1, "byteOffset" : 0, "componentType" : 5126, "count" : 1342, "type" : "VEC3", "max" : [3.015399932861328, 1.2118220329284668, 1.010754942893982], "min" : [-2.8049209117889404, -0.8922200202941895, -0.8368819952011108], "name" : "POSITION"}], "asset" : {"generator" : "Aspose.3D 22.3", "version" : "2.0"}, "buffers" : [{"uri" : "data:application/octet-stream;base64,", "byteLength" : 25292}], "bufferViews" : [{"buffer" : 0, "byteOffset" : 0, "byteLength" : 3612, "target" : 34963}, {"buffer" : 0, "byteOffset" : 3616, "byteLength" : 21672, "byteStride" : 12, "target" : 34962}], "meshes" : [{"primitives" : [{"attributes" : {"POSITION" : 1}, "indices" : 0, "mode" : 4}], "name" : ""}], "nodes" : [{"mesh" : 0, "name" : ""}], "scene" : 0, "scenes" : [{"nodes" : [0]}]}