{"accessors" : [{"bufferView" : 0, "byteOffset" : 0, "componentType" : 5123, "count" : 1200, "type" : "SCALAR", "max" : [1199], "min" : [0]}, {"bufferView" : 1, "byteOffset" : 0, "componentType" : 5126, "count" : 1200, "type" : "VEC3", "max" : [0.026469895616173744, 0.015009035356342793, 0.01916343718767166], "min" : [-0.022918857634067535, -0.015009033493697643, -0.021598471328616142], "name" : "POSITION"}, {"bufferView" : 1, "byteOffset" : 12, "componentType" : 5126, "count" : 1200, "type" : "VEC3", "max" : [0.9920817613601685, 0.9435257315635681, 0.9435281157493591], "min" : [-0.9920817613601685, -0.9435257911682129, -0.9435281157493591], "name" : "NORMAL"}, {"bufferView" : 1, "byteOffset" : 24, "componentType" : 5126, "count" : 1200, "type" : "VEC2", "max" : [1, 1], "min" : [0, 0.5276179909706116], "name" : "TEXCOORD_0"}, {"bufferView" : 0, "byteOffset" : 2400, "componentType" : 5123, "count" : 720, "type" : "SCALAR", "max" : [719], "min" : [0]}, {"bufferView" : 2, "byteOffset" : 0, "componentType" : 5126, "count" : 720, "type" : "VEC3", "max" : [0.01799255609512329, 0.012282048352062702, 0.015527036041021347], "min" : [-0.01487306784838438, -0.009666506201028824, -0.013658263720571995], "name" : "POSITION"}, {"bufferView" : 2, "byteOffset" : 12, "componentType" : 5126, "count" : 720, "type" : "VEC3", "max" : [0.9920817017555237, 0.9435257911682129, 0.9435280561447144], "min" : [-0.9920817613601685, -0.9435257911682129, -0.9435280561447144], "name" : "NORMAL"}, {"bufferView" : 2, "byteOffset" : 24, "componentType" : 5126, "count" : 720, "type" : "VEC2", "max" : [1, 1], "min" : [0, 0.5276179909706116], "name" : "TEXCOORD_0"}, {"bufferView" : 0, "byteOffset" : 3840, "componentType" : 5123, "count" : 1440, "type" : "SCALAR", "max" : [1439], "min" : [0]}, {"bufferView" : 3, "byteOffset" : 0, "componentType" : 5126, "count" : 1440, "type" : "VEC3", "max" : [0.03928409889340401, 0.054042160511016846, 0.03879224509000778], "min" : [-0.038412537425756454, -0.03385380655527115, -0.041338399052619934], "name" : "POSITION"}, {"bufferView" : 3, "byteOffset" : 12, "componentType" : 5126, "count" : 1440, "type" : "VEC3", "max" : [0.9920817613601685, 0.9435258507728577, 0.9435280561447144], "min" : [-0.9920817613601685, -0.9435259103775024, -0.9435280561447144], "name" : "NORMAL"}, {"bufferView" : 3, "byteOffset" : 24, "componentType" : 5126, "count" : 1440, "type" : "VEC2", "max" : [1, 1], "min" : [0, 0.5276179909706116], "name" : "TEXCOORD_0"}], "asset" : {"generator" : "Aspose.3D 22.3", "version" : "2.0"}, "buffers" : [{"uri" : "data:application/octet-stream;base64,", "byteLength" : 114256}], "bufferViews" : [{"buffer" : 0, "byteOffset" : 0, "byteLength" : 6720, "target" : 34963}, {"buffer" : 0, "byteOffset" : 6724, "byteLength" : 38400, "byteStride" : 32, "target" : 34962}, {"buffer" : 0, "byteOffset" : 45128, "byteLength" : 23040, "byteStride" : 32, "target" : 34962}, {"buffer" : 0, "byteOffset" : 68172, "byteLength" : 46080, "byteStride" : 32, "target" : 34962}], "materials" : [{"name" : "Material", "pbrMetallicRoughness" : {"baseColorFactor" : [0.800000011920929, 0.800000011920929, 0.800000011920929, 1], "metallicFactor" : 0.400000005960464, "roughnessFactor" : 0.229415729641914}, "emissiveFactor" : [0, 0, 0], "alphaMode" : "OPAQUE", "doubleSided" : false}, {"name" : "Material", "pbrMetallicRoughness" : {"baseColorFactor" : [0.800000011920929, 0.800000011920929, 0.800000011920929, 1], "metallicFactor" : 0.400000005960464, "roughnessFactor" : 0.229415729641914}, "emissiveFactor" : [0, 0, 0], "alphaMode" : "OPAQUE", "doubleSided" : false}, {"name" : "Material", "pbrMetallicRoughness" : {"baseColorFactor" : [0.800000011920929, 0.800000011920929, 0.800000011920929, 1], "metallicFactor" : 0.400000005960464, "roughnessFactor" : 0.229415729641914}, "emissiveFactor" : [0, 0, 0], "alphaMode" : "OPAQUE", "doubleSided" : false}], "meshes" : [{"primitives" : [{"attributes" : {"POSITION" : 1, "NORMAL" : 2, "TEXCOORD_0" : 3}, "indices" : 0, "material" : 0, "mode" : 4}]}, {"primitives" : [{"attributes" : {"POSITION" : 5, "NORMAL" : 6, "TEXCOORD_0" : 7}, "indices" : 4, "material" : 1, "mode" : 4}]}, {"primitives" : [{"attributes" : {"POSITION" : 9, "NORMAL" : 10, "TEXCOORD_0" : 11}, "indices" : 8, "material" : 2, "mode" : 4}]}], "nodes" : [{"matrix" : [45.537410736084, 0, 0, 0, 0, -6.118354403456305E-06, -45.53740917740451, 0, 0, 45.53740917740451, -6.118354403456305E-06, 0, -1.01275706291199, 0.931105315685272, 0.0848393812775612, 1], "mesh" : 0, "name" : "Icosphere.004"}, {"matrix" : [45.4070587158203, 0, 0, 0, 0, -6.10084045515999E-06, -45.40705716160257, 0, 0, 45.40705716160257, -6.10084045515999E-06, 0, -4.43233966827393, 0.362063586711884, 0.0925066098570824, 1], "mesh" : 1, "name" : "Icosphere.002"}, {"matrix" : [37.8787841796875, 0, 0, 0, 0, -5.0893501021945E-06, -37.878782883151686, 0, 0, 37.878782883151686, -5.0893501021945E-06, 0, 2.81889700889587, 0.337841242551804, 0.184302151203156, 1], "mesh" : 2, "name" : "Icosphere.007"}, {"children" : [0, 1, 2], "name" : "RootNode"}], "scene" : 0, "scenes" : [{"nodes" : [3]}]}